#!OML:ASF I:\Actors\actors\Patient Classification 2\Patient 1\Session 1\actor1.ASF
:FULLY-SPECIFIED
:DEGREES
69
root -0.67739 18.6961 5.90691 2.43729 -1.69818 -3.09786
lowerback 0.22271 0.642139 0.304707
upperback -2.58117 0.893051 1.28632
thorax -2.78868 0.455246 1.126
lowerneck -12.0066 -2.32133 -1.96211
upperneck 26.1864 -3.84764 3.61489
head 10.463 -1.54545 1.14011
rclavicle -1.61481e-014 -8.10048e-015
rhumerus -47.4271 -2.76782 -86.1588
rradius 40.7163
rwrist 23.3221
rhand -7.11119 -29.8402
rfingers 7.12502
rthumb 18.7639 -58.9552
lclavicle -1.61481e-014 -8.10048e-015
lhumerus -43.696 -0.0884759 91.3341
lradius 37.7884
lwrist -7.75847
lhand -10.0003 -30.503
lfingers 7.12502
lthumb 15.9834 -1.14242
rfemur 0 0 0
rtibia 0
rfoot 0 0
rtoes 0
lfemur -5.37802 -7.66071 -11.4175
ltibia 22.2421
lfoot -23.9358 14.4247
ltoes -55.5468
70
root -0.677557 18.697 5.90672 2.44402 -1.71302 -3.09111
lowerback 0.231498 0.660607 0.319281
upperback -2.57165 0.917562 1.27073
thorax -2.78375 0.46692 1.1011
lowerneck -11.9798 -2.32393 -1.98806
upperneck 26.1721 -3.85298 3.64537
head 10.4539 -1.54733 1.15495
rclavicle -1.88597e-014 -6.16232e-015
rhumerus -47.4205 -2.77239 -86.1724
rradius 40.7256
rwrist 23.321
rhand -7.18957 -29.6912
rfingers 7.12502
rthumb 18.6885 -58.8135
lclavicle -1.88597e-014 -6.16232e-015
lhumerus -43.6442 0.603957 90.6716
lradius 37.7892
lwrist -10.6003
lhand -8.63902 -29.9899
lfingers 7.12502
lthumb 17.2939 -0.739372
rfemur 0 0 0
rtibia 0
rfoot 0 0
rtoes 0
lfemur -5.37932 -7.70732 -11.426
ltibia 22.2388
lfoot -24.0003 14.3836
ltoes -55.4193
71
root -0.6778 18.6969 5.90671 2.45267 -1.7199 -3.09396
lowerback 0.227792 0.670612 0.335371
upperback -2.56019 0.930778 1.26132
thorax -2.76965 0.472992 1.08216
lowerneck -11.9656 -2.33353 -2.03865
upperneck 26.1616 -3.87107 3.70624
head 10.4503 -1.5538 1.1831
rclavicle 1.11599e-014 -4.12478e-015
rhumerus -47.4079 -2.81866 -86.1672
rradius 40.7105
rwrist 23.3651
rhand -7.33988 -29.4549
rfingers 7.12502
rthumb 18.5439 -58.591
lclavicle 1.11599e-014 -4.12478e-015
lhumerus -43.7638 -0.169791 91.4009
lradius 37.8916
lwrist -7.53975
lhand -10.0961 -30.3128
lfingers 7.12502
lthumb 15.8911 -0.94481
rfemur 0 0 0
rtibia 0
rfoot 0 0
rtoes 0
lfemur -5.3907 -7.73573 -11.4231
ltibia 22.2436
lfoot -24.0062 14.4023
ltoes -55.3572
72
root -0.678385 18.6968 5.90637 2.48894 -1.71462 -3.10126
lowerback 0.209365 0.670078 0.342664
upperback -2.56414 0.929875 1.25467
thorax -2.76309 0.472293 1.07148
lowerneck -11.9692 -2.34344 -2.03408
upperneck 26.1709 -3.89268 3.72802
head 10.4556 -1.56061 1.18736
rclavicle -1.78409e-014 5.71506e-015
rhumerus -47.3852 -2.84122 -86.1857
rradius 40.6884
rwrist 23.3597
rhand -7.38641 -29.4546
rfingers 7.12502
rthumb 18.4992 -58.595
lclavicle -1.78409e-014 5.71506e-015
lhumerus -43.7856 -0.154517 91.3739
lradius 37.8708
lwrist -7.61734
lhand -10.1634 -30.3186
lfingers 7.12502
lthumb 15.8263 -0.945428
rfemur 0 0 0
rtibia 0
rfoot 0 0
rtoes 0
lfemur -5.43913 -7.70402 -11.4049
ltibia 22.2497
lfoot -23.9597 14.4342
ltoes -55.4048
73
root -0.678916 18.6975 5.9058 2.51888 -1.71041 -3.10644
lowerback 0.199205 0.671073 0.346451
upperback -2.56565 0.931134 1.25301
thorax -2.75885 0.472815 1.06773
lowerneck -12.0091 -2.35534 -2.00158
upperneck 26.2216 -3.90982 3.69418
head 10.4813 -1.56814 1.16742
rclavicle -1.1455e-014 -1.77415e-014
rhumerus -47.3657 -2.80679 -86.2177
rradius 40.704
rwrist 23.2822
rhand -7.32146 -29.6029
rfingers 7.12502
rthumb 18.5616 -58.7373
lclavicle -1.1455e-014 -1.77415e-014
lhumerus -43.8115 -0.149125 91.3566
lradius 37.8478
lwrist -7.65247
lhand -10.195 -30.405
lfingers 7.12502
lthumb 15.7959 -1.02946
rfemur 0 0 0
rtibia 0
rfoot 0 0
rtoes 0
lfemur -5.47623 -7.69514 -11.3887
ltibia 22.252
lfoot -23.9805 14.4319
ltoes -55.3896
74
root -0.679229 18.6985 5.90536 2.52173 -1.71538 -3.1022
lowerback 0.218681 0.665033 0.332872
upperback -2.55809 0.923121 1.25978
thorax -2.76224 0.4692 1.08231
lowerneck -12.0422 -2.35853 -2.00907
upperneck 26.2653 -3.91032 3.67985
head 10.5038 -1.5699 1.16339
rclavicle 3.72721e-016 -1.17283e-014
rhumerus -47.3461 -2.75185 -86.2337
rradius 40.7172
rwrist 23.2267
rhand -7.2778 -29.6578
rfingers 7.12502
rthumb 18.6036 -58.7882
lclavicle 3.72721e-016 -1.17283e-014
lhumerus -43.7636 0.325854 90.9396
lradius 37.7562
lwrist -9.3298
lhand -9.41075 -30.4519
lfingers 7.12502
lthumb 16.551 -1.13779
rfemur 0 0 0
rtibia 0
rfoot 0 0
rtoes 0
lfemur -5.47775 -7.73805 -11.394
ltibia 22.2528
lfoot -24.0344 14.4435
ltoes -55.3277
75
root -0.679589 18.6991 5.90473 2.53224 -1.71115 -3.1035
lowerback 0.19433 0.644886 0.32031
upperback -2.52297 0.895482 1.26941
thorax -2.71219 0.455699 1.10042
lowerneck -12.0403 -2.3388 -1.98749
upperneck 26.2242 -3.88026 3.66047
head 10.4863 -1.55676 1.15641
rclavicle 2.81405e-015 -1.39149e-014
rhumerus -47.2629 -2.70488 -86.2517
rradius 40.6982
rwrist 23.205
rhand -7.29113 -29.7186
rfingers 7.12502
rthumb 18.5908 -58.8503
lclavicle 2.81405e-015 -1.39149e-014
lhumerus -43.7406 0.178821 91.124
lradius 37.7037
lwrist -8.38929
lhand -9.80188 -30.7375
lfingers 7.12502
lthumb 16.1744 -1.39234
rfemur 0 0 0
rtibia 0
rfoot 0 0
rtoes 0
lfemur -5.49106 -7.77628 -11.3941
ltibia 22.2518
lfoot -24.0342 14.4867
ltoes -55.3262
76
root -0.679803 18.6984 5.90442 2.53911 -1.71156 -3.10394
lowerback 0.172149 0.636165 0.32758
upperback -2.48658 0.883118 1.26528
thorax -2.66179 0.449194 1.09286
lowerneck -12.035 -2.32595 -1.90015
upperneck 26.1716 -3.85899 3.58295
head 10.4616 -1.5481 1.11634
rclavicle -5.22742e-015 -1.6201e-014
rhumerus -47.1853 -2.70053 -86.269
rradius 40.6806
rwrist 23.1869
rhand -7.32603 -29.7952
rfingers 7.12502
rthumb 18.5572 -58.93
lclavicle -5.22742e-015 -1.6201e-014
lhumerus -43.6802 0.370573 90.9207
lradius 37.7158
lwrist -9.32373
lhand -9.4029 -30.4984
lfingers 7.12502
lthumb 16.5586 -1.18489
rfemur 0 0 0
rtibia 0
rfoot 0 0
rtoes 0
lfemur -5.49198 -7.77256 -11.3965
ltibia 22.2411
lfoot -24.005 14.5158
ltoes -55.3669
77
root -0.680012 18.6978 5.90461 2.52127 -1.7192 -3.08878
lowerback 0.244086 0.635285 0.324399
upperback -2.4969 0.882589 1.25415
thorax -2.7128 0.448914 1.08236
lowerneck -12.0223 -2.32617 -1.8466
upperneck 26.174 -3.85627 3.52493
head 10.4575 -1.54852 1.087
rclavicle 5.01931e-015 1.41137e-014
rhumerus -47.2224 -2.69313 -86.2878
rradius 40.698
rwrist 23.152
rhand -7.37992 -29.8042
rfingers 7.12502
rthumb 18.5054 -58.944
lclavicle 5.01931e-015 1.41137e-014
lhumerus -43.7809 -0.00533935 91.2317
lradius 37.712
lwrist -7.90053
lhand -10.0195 -30.772
lfingers 7.12502
lthumb 15.9649 -1.4099
rfemur 0 0 0
rtibia 0
rfoot 0 0
rtoes 0
lfemur -5.45766 -7.77205 -11.4194
ltibia 22.2254
lfoot -24.0027 14.5123
ltoes -55.3916
78
root -0.680516 18.6973 5.90436 2.51286 -1.71457 -3.07609
lowerback 0.295414 0.617038 0.29374
upperback -2.5071 0.858599 1.26261
thorax -2.75243 0.437787 1.10825
lowerneck -11.9685 -2.31945 -1.86617
upperneck 26.1384 -3.84201 3.52758
head 10.4339 -1.54476 1.09348
rclavicle 1.83286e-014 -4.82053e-015
rhumerus -47.259 -2.66103 -86.2873
rradius 40.7159
rwrist 23.1823
rhand -7.31417 -29.8254
rfingers 7.12502
rthumb 18.5686 -58.9591
lclavicle 1.83286e-014 -4.82053e-015
lhumerus -43.8353 0.0300072 91.2218
lradius 37.7224
lwrist -7.96772
lhand -9.95679 -30.6556
lfingers 7.12502
lthumb 16.0253 -1.29835
rfemur 0 0 0
rtibia 0
rfoot 0 0
rtoes 0
lfemur -5.44533 -7.77831 -11.4345
ltibia 22.2153
lfoot -24.0021 14.5143
ltoes -55.4451
